<svg xmlns="http://www.w3.org/2000/svg" width="1080" height="360" viewBox="0 0 1080 360" role="img" aria-labelledby="title desc">
  <title id="title">解約分析のデータ処理手順</title><desc id="desc">4データ源を顧客IDで結合し、契約月cohortで90日継続を比較する</desc>
  <rect width="1080" height="360" rx="18" fill="#fff"/>
  <g font-family="sans-serif"><g fill="#eee9df" stroke="#d4cec3"><rect x="56" y="62" width="170" height="62" rx="8"/><rect x="56" y="142" width="170" height="62" rx="8"/><rect x="56" y="222" width="170" height="62" rx="8"/></g>
  <g font-size="16" fill="#252522"><text x="82" y="100">契約・属性</text><text x="82" y="180">設定event</text><text x="82" y="260">退会・継続</text></g>
  <path d="M226 93h76M226 173h76M226 253h76" stroke="#a6422c" stroke-width="3"/><path d="M302 93v160" stroke="#a6422c" stroke-width="3"/>
  <rect x="322" y="114" width="190" height="120" rx="12" fill="#252522"/><text x="417" y="158" text-anchor="middle" font-size="18" font-weight="700" fill="#fbfaf6">顧客IDで結合</text><text x="417" y="188" text-anchor="middle" font-size="15" fill="#d8d1c6">欠損31社を分離</text><text x="417" y="214" text-anchor="middle" font-size="15" fill="#d8d1c6">試用のみを除外</text>
  <path d="M512 174h92" stroke="#24685e" stroke-width="4"/><path d="m594 162 18 12-18 12" fill="#24685e"/>
  <rect x="626" y="82" width="176" height="184" rx="12" fill="#e5efec"/><text x="714" y="128" text-anchor="middle" font-size="18" font-weight="700" fill="#24685e">契約月cohort</text><text x="714" y="164" text-anchor="middle" font-size="16" fill="#252522">2026-01</text><text x="714" y="194" text-anchor="middle" font-size="16" fill="#252522">2026-02</text><text x="714" y="224" text-anchor="middle" font-size="16" fill="#252522">2026-03</text>
  <path d="M802 174h84" stroke="#24685e" stroke-width="4"/><path d="m876 162 18 12-18 12" fill="#24685e"/>
  <rect x="906" y="114" width="130" height="120" rx="12" fill="#a6422c"/><text x="971" y="158" text-anchor="middle" font-size="17" font-weight="700" fill="#fff">90日継続</text><text x="971" y="191" text-anchor="middle" font-size="15" fill="#f6ded8">完了 / 未完了</text><text x="971" y="216" text-anchor="middle" font-size="15" fill="#f6ded8">を比較</text>
  <text x="56" y="326" font-size="14" fill="#6b675f">対象：新規契約1,240社｜抽出：2026-07-02｜デモデータ</text></g>
</svg>
